<?xml version="1.0" standalone="no"?>
<!DOCTYPE svg PUBLIC "-//W3C//DTD SVG 20010904//EN"
 "http://www.w3.org/TR/2001/REC-SVG-20010904/DTD/svg10.dtd">
<svg version="1.0" xmlns="http://www.w3.org/2000/svg"
 width="512.000000pt" height="512.000000pt" viewBox="0 0 512.000000 512.000000"
 preserveAspectRatio="xMidYMid meet">
<metadata>
Created by potrace 1.14, written by Peter Selinger 2001-2017
</metadata>
<g transform="translate(0.000000,512.000000) scale(0.100000,-0.100000)"
fill="#000000" stroke="none">
<path d="M3773 5103 c-17 -10 -68 -52 -114 -93 -45 -41 -91 -83 -103 -93 -12
-10 -39 -35 -61 -56 -22 -20 -69 -63 -106 -96 -36 -33 -110 -101 -165 -151
-54 -50 -117 -106 -138 -125 -22 -19 -49 -43 -61 -54 -11 -11 -63 -58 -114
-105 -52 -47 -120 -108 -150 -136 -31 -28 -112 -102 -181 -164 -69 -62 -151
-137 -183 -167 -32 -29 -61 -53 -65 -52 -4 0 -36 46 -72 102 -107 166 -274
323 -425 399 -67 34 -198 75 -271 84 -484 63 -905 -244 -968 -707 -6 -44 -8
-46 -66 -72 -105 -49 -219 -184 -247 -292 -9 -37 -6 -55 14 -77 14 -16 37 -18
198 -18 l182 0 33 -71 c56 -121 53 -229 -9 -364 -72 -155 -95 -269 -95 -465 0
-124 5 -176 23 -259 98 -448 354 -829 756 -1126 168 -124 408 -237 605 -284
129 -30 144 -32 300 -36 207 -6 342 21 502 100 l67 34 58 -67 c32 -37 60 -69
63 -72 3 -3 48 -54 100 -115 52 -60 97 -112 100 -115 3 -3 46 -52 95 -110 152
-178 200 -215 317 -254 60 -19 90 -23 168 -21 139 4 238 46 333 142 62 60 80
104 72 163 -6 38 -16 53 -62 97 l-55 53 36 0 c45 0 135 30 198 65 129 72 240
246 233 368 -3 63 -39 109 -99 128 l-46 15 51 39 c115 90 188 241 185 380 -2
70 -27 115 -79 142 -34 17 -77 18 -825 8 l-263 -3 68 40 c163 98 297 224 401
375 36 53 72 95 85 98 60 19 186 72 222 94 164 101 242 312 185 499 -13 43
-67 101 -95 103 -8 1 -19 3 -25 4 -5 1 -13 3 -17 4 -5 1 35 18 87 37 198 73
248 105 316 197 116 158 113 421 -7 482 -16 9 -31 15 -34 15 -31 -1 -48 2 -35
7 28 11 100 64 135 100 116 120 154 328 84 465 -22 44 -79 77 -124 72 -24 -2
-318 -104 -467 -163 -25 -9 -26 -8 -22 12 11 47 12 155 3 198 -16 68 -70 167
-111 204 -42 38 -90 51 -131 36 -18 -7 -27 -7 -27 0 0 5 6 12 14 15 22 9 85
144 97 209 10 56 8 121 -6 189 -12 59 -82 173 -124 203 -34 23 -102 26 -138 6z"/>
</g>
</svg>
